<svg width="1157" height="706" viewBox="0 0 1157 706" fill="none" xmlns="http://www.w3.org/2000/svg">
<path d="M101.5 3L1 138" stroke="black"/>
<path d="M101.5 97L1 232" stroke="black"/>
<path d="M109.5 217L9 352" stroke="black"/>
<path d="M256.5 138L156 273" stroke="black"/>
<path d="M429.5 388L329 523" stroke="black"/>
<path d="M493.5 121L393 256" stroke="black"/>
<path d="M679.5 97L579 232" stroke="black"/>
<path d="M826.5 91L726 226" stroke="black"/>
<path d="M953.5 91L853 226" stroke="black"/>
<path d="M1037.5 415L937 550" stroke="black"/>
<path d="M861 489L708.068 704.726" stroke="black"/>
<path d="M738.033 422L585.101 637.726" stroke="black"/>
<path d="M545.033 489L392.101 704.726" stroke="black"/>
<path d="M340.033 336L187.101 551.726" stroke="black"/>
<path d="M417.033 1L264.101 216.726" stroke="black"/>
<path d="M1080.5 91L980 226" stroke="black"/>
<path d="M1156 91L1108 189" stroke="black"/>
<path d="M951 256L903 354" stroke="black"/>
<path d="M841 366L793 464" stroke="black"/>
<path d="M662 358L614 456" stroke="black"/>
<path d="M579 290L531 388" stroke="black"/>
<path d="M505 200L457 298" stroke="black"/>
<path d="M155 434L107 532" stroke="black"/>
</svg>
