<svg width="214" height="27" viewBox="0 0 214 27" fill="none" xmlns="http://www.w3.org/2000/svg">
<path d="M0.54 0.799998H4.356L6.12 20.168H6.192L8.064 0.799998H12.384L14.256 20.168H14.328L16.092 0.799998H19.512L16.956 26H12.024L10.224 9.008H10.152L8.352 26H3.096L0.54 0.799998ZM21.5151 0.799998H32.3151V4.4H25.4751V11.06H30.9111V14.66H25.4751V22.4H32.3151V26H21.5151V0.799998ZM34.5932 0.799998H40.5692C42.6092 0.799998 44.0972 1.28 45.0332 2.24C45.9692 3.176 46.4372 4.628 46.4372 6.596V7.604C46.4372 8.9 46.2212 9.956 45.7892 10.772C45.3812 11.588 44.7452 12.176 43.8812 12.536V12.608C45.8492 13.28 46.8332 15.032 46.8332 17.864V20.024C46.8332 21.968 46.3172 23.456 45.2852 24.488C44.2772 25.496 42.7892 26 40.8212 26H34.5932V0.799998ZM40.1012 11.06C40.8932 11.06 41.4812 10.856 41.8652 10.448C42.2732 10.04 42.4772 9.356 42.4772 8.396V6.992C42.4772 6.08 42.3092 5.42 41.9732 5.012C41.6612 4.604 41.1572 4.4 40.4612 4.4H38.5532V11.06H40.1012ZM40.8212 22.4C41.5172 22.4 42.0332 22.22 42.3692 21.86C42.7052 21.476 42.8732 20.828 42.8732 19.916V17.72C42.8732 16.568 42.6692 15.776 42.2612 15.344C41.8772 14.888 41.2292 14.66 40.3172 14.66H38.5532V22.4H40.8212ZM54.9135 0.799998H60.7455C62.7135 0.799998 64.1895 1.328 65.1735 2.384C66.1575 3.44 66.6495 4.988 66.6495 7.028V9.512C66.6495 11.552 66.1575 13.1 65.1735 14.156C64.1895 15.212 62.7135 15.74 60.7455 15.74H58.8735V26H54.9135V0.799998ZM60.7455 12.14C61.3935 12.14 61.8735 11.96 62.1855 11.6C62.5215 11.24 62.6895 10.628 62.6895 9.764V6.776C62.6895 5.912 62.5215 5.3 62.1855 4.94C61.8735 4.58 61.3935 4.4 60.7455 4.4H58.8735V12.14H60.7455ZM68.8002 0.799998H74.6682C76.7082 0.799998 78.1962 1.28 79.1322 2.24C80.0682 3.176 80.5362 4.628 80.5362 6.596V8.144C80.5362 10.76 79.6722 12.416 77.9442 13.112V13.184C78.9042 13.472 79.5762 14.06 79.9602 14.948C80.3682 15.836 80.5722 17.024 80.5722 18.512V22.94C80.5722 23.66 80.5962 24.248 80.6442 24.704C80.6922 25.136 80.8122 25.568 81.0042 26H76.9722C76.8282 25.592 76.7322 25.208 76.6842 24.848C76.6362 24.488 76.6122 23.84 76.6122 22.904V18.296C76.6122 17.144 76.4202 16.34 76.0362 15.884C75.6762 15.428 75.0402 15.2 74.1282 15.2H72.7602V26H68.8002V0.799998ZM74.2002 11.6C74.9922 11.6 75.5802 11.396 75.9642 10.988C76.3722 10.58 76.5762 9.896 76.5762 8.936V6.992C76.5762 6.08 76.4082 5.42 76.0722 5.012C75.7602 4.604 75.2562 4.4 74.5602 4.4H72.7602V11.6H74.2002ZM89.0438 26.36C87.0998 26.36 85.6118 25.808 84.5798 24.704C83.5478 23.6 83.0317 22.04 83.0317 20.024V6.776C83.0317 4.76 83.5478 3.2 84.5798 2.096C85.6118 0.991999 87.0998 0.439999 89.0438 0.439999C90.9878 0.439999 92.4758 0.991999 93.5078 2.096C94.5398 3.2 95.0558 4.76 95.0558 6.776V20.024C95.0558 22.04 94.5398 23.6 93.5078 24.704C92.4758 25.808 90.9878 26.36 89.0438 26.36ZM89.0438 22.76C90.4118 22.76 91.0957 21.932 91.0957 20.276V6.524C91.0957 4.868 90.4118 4.04 89.0438 4.04C87.6758 4.04 86.9918 4.868 86.9918 6.524V20.276C86.9918 21.932 87.6758 22.76 89.0438 22.76ZM103.35 26.36C101.43 26.36 99.9658 25.82 98.9578 24.74C97.9498 23.636 97.4458 22.064 97.4458 20.024V6.776C97.4458 4.736 97.9498 3.176 98.9578 2.096C99.9658 0.991999 101.43 0.439999 103.35 0.439999C105.27 0.439999 106.734 0.991999 107.742 2.096C108.75 3.176 109.254 4.736 109.254 6.776V8.936H105.51V6.524C105.51 4.868 104.826 4.04 103.458 4.04C102.09 4.04 101.406 4.868 101.406 6.524V20.312C101.406 21.944 102.09 22.76 103.458 22.76C104.826 22.76 105.51 21.944 105.51 20.312V15.38H103.53V11.78H109.254V20.024C109.254 22.064 108.75 23.636 107.742 24.74C106.734 25.82 105.27 26.36 103.35 26.36ZM111.796 0.799998H117.664C119.704 0.799998 121.192 1.28 122.128 2.24C123.064 3.176 123.532 4.628 123.532 6.596V8.144C123.532 10.76 122.668 12.416 120.94 13.112V13.184C121.9 13.472 122.572 14.06 122.956 14.948C123.364 15.836 123.568 17.024 123.568 18.512V22.94C123.568 23.66 123.592 24.248 123.64 24.704C123.688 25.136 123.808 25.568 124 26H119.968C119.824 25.592 119.728 25.208 119.68 24.848C119.632 24.488 119.608 23.84 119.608 22.904V18.296C119.608 17.144 119.416 16.34 119.032 15.884C118.672 15.428 118.036 15.2 117.124 15.2H115.756V26H111.796V0.799998ZM117.196 11.6C117.988 11.6 118.576 11.396 118.96 10.988C119.368 10.58 119.572 9.896 119.572 8.936V6.992C119.572 6.08 119.404 5.42 119.068 5.012C118.756 4.604 118.252 4.4 117.556 4.4H115.756V11.6H117.196ZM129.376 0.799998H134.74L138.844 26H134.884L134.164 20.996V21.068H129.664L128.944 26H125.272L129.376 0.799998ZM133.696 17.648L131.932 5.192H131.86L130.132 17.648H133.696ZM140.765 0.799998H146.417L148.937 18.836H149.009L151.529 0.799998H157.181V26H153.437V6.92H153.365L150.485 26H147.173L144.293 6.92H144.221V26H140.765V0.799998ZM160.136 0.799998H165.788L168.308 18.836H168.38L170.9 0.799998H176.552V26H172.808V6.92H172.736L169.856 26H166.544L163.664 6.92H163.592V26H160.136V0.799998ZM179.507 0.799998H183.467V26H179.507V0.799998ZM186.433 0.799998H191.401L195.253 15.884H195.325V0.799998H198.853V26H194.785L190.033 7.604H189.961V26H186.433V0.799998ZM207.412 26.36C205.492 26.36 204.028 25.82 203.02 24.74C202.012 23.636 201.508 22.064 201.508 20.024V6.776C201.508 4.736 202.012 3.176 203.02 2.096C204.028 0.991999 205.492 0.439999 207.412 0.439999C209.332 0.439999 210.796 0.991999 211.804 2.096C212.812 3.176 213.316 4.736 213.316 6.776V8.936H209.572V6.524C209.572 4.868 208.888 4.04 207.52 4.04C206.152 4.04 205.468 4.868 205.468 6.524V20.312C205.468 21.944 206.152 22.76 207.52 22.76C208.888 22.76 209.572 21.944 209.572 20.312V15.38H207.592V11.78H213.316V20.024C213.316 22.064 212.812 23.636 211.804 24.74C210.796 25.82 209.332 26.36 207.412 26.36Z" fill="black"/>
</svg>
